<svg width="372" height="293" viewBox="0 0 372 293" fill="none" xmlns="http://www.w3.org/2000/svg">
<path d="M0.62013 241.833C19.2571 233.511 40.4148 234.585 59.9636 238.719C80.6386 243.095 100.536 250.719 121.399 254.263C132.956 256.223 144.755 256.921 156.393 255.095C156.903 255.015 156.688 254.236 156.179 254.317C134.565 257.673 112.952 252.303 92.2766 246.451C72.4866 240.84 52.4551 234.612 31.646 234.773C20.8661 234.853 10.1129 236.732 0.217892 241.135C-0.264793 241.35 0.137445 242.048 0.62013 241.833Z" fill="#E1E0E0"/>
<path d="M104.987 248.76C130.248 249.27 154.704 242.263 179.401 238.102C186.615 236.893 193.882 235.927 201.203 235.444C201.712 235.417 201.712 234.612 201.203 234.638C175.915 236.303 151.54 243.873 126.44 246.827C119.334 247.659 112.174 248.115 105.014 247.981C104.451 247.954 104.451 248.76 104.987 248.76Z" fill="#E1E0E0"/>
<path d="M223.057 239.738C232.041 237.805 241.346 237.483 250.436 238.879C258.803 240.168 266.821 242.933 274.731 245.886C282.535 248.786 290.285 251.873 298.383 253.94C306.75 256.061 315.25 256.598 323.885 256.598C334.075 256.598 344.345 256.195 354.348 258.45C354.857 258.558 355.072 257.779 354.562 257.672C336.89 253.698 318.575 257.725 300.904 253.698C284.412 249.94 269.341 241.483 252.662 238.45C242.794 236.651 232.657 236.866 222.87 238.96C222.333 239.067 222.548 239.846 223.057 239.738Z" fill="#E1E0E0"/>
<path d="M76.5892 136.515C74.2831 135.817 69.7512 133.911 71.4406 130.689C72.6473 128.38 76.2406 128.192 78.4663 128.273C85.9748 128.488 93.4832 129.132 100.992 128.514C108.044 127.924 114.775 125.91 121.64 124.3C128.612 122.635 135.986 121.427 143.012 123.467C146.096 124.353 148.965 125.83 151.995 126.85C153.443 127.333 154.945 127.709 156.474 127.87C158.297 128.058 160.121 127.79 161.917 127.709C163.767 127.629 165.671 127.682 167.254 128.783C168.702 129.776 169.908 131.655 168.97 133.401C167.629 135.924 163.714 135.226 161.461 134.743C154.784 133.347 148.053 132.917 141.269 133.83C137.676 134.313 134.163 135.199 130.73 136.3C127.03 137.481 123.436 138.528 119.495 137.991C115.821 137.481 112.308 136.3 108.58 136.166C104.853 136.005 101.153 136.488 97.4787 136.971C90.3457 137.938 82.73 139.172 76.0529 135.709C75.597 135.468 75.1948 136.166 75.6507 136.407C81.8988 139.656 88.9513 138.904 95.7089 138.018C99.2486 137.535 102.815 137.025 106.408 136.944C110.35 136.864 114.024 137.776 117.859 138.528C121.774 139.28 125.314 138.877 129.121 137.696C132.902 136.515 136.63 135.36 140.545 134.77C144.594 134.152 148.697 133.991 152.773 134.286C156.393 134.528 159.852 135.495 163.419 135.897C165.537 136.139 168.246 136.058 169.56 134.072C171.061 131.79 169.452 129.132 167.388 127.87C164.25 125.964 160.362 127.306 156.956 127.092C153.202 126.85 149.743 125.105 146.284 123.763C139.097 120.971 131.749 121.32 124.321 122.904C116.464 124.568 108.822 127.118 100.777 127.763C96.138 128.139 91.4452 128.058 86.8061 127.87C84.3926 127.763 81.9524 127.655 79.539 127.548C78.0373 127.494 76.5624 127.467 75.0875 127.763C72.8082 128.219 70.2071 129.561 70.3679 132.273C70.5557 135.253 73.9881 136.622 76.4015 137.347C76.8574 137.454 77.0719 136.676 76.5892 136.515Z" fill="#E1E0E0"/>
<path d="M274.49 37.4788C272.184 37.1566 268.403 36.3244 267.733 33.6935C266.767 30.0424 271.97 28.888 274.49 28.4316C281.865 27.1698 289.427 28.3242 296.855 28.3242C311.576 28.2973 326.084 25.5053 340.725 24.4583C348.046 23.9214 355.42 23.8409 362.714 24.7805C364.377 24.9952 366.12 25.1563 367.729 25.6396C368.399 25.8275 369.15 26.1496 369.66 26.6329C370.893 27.841 369.686 28.9417 368.56 29.5323C365.664 31.0625 362.366 31.68 359.121 31.8142C352.631 32.1095 346.169 30.7672 339.679 31.0088C336.649 31.1162 333.673 31.6263 330.803 32.6733C327.451 33.9082 324.341 35.6532 320.962 36.8076C317.047 38.1499 312.917 38.8211 308.761 38.8211C304.551 38.8211 300.394 38.1768 296.238 37.6936C287.818 36.7271 279.371 36.7539 270.977 37.8815C270.468 37.962 270.468 38.7674 270.977 38.6869C279.183 37.5862 287.496 37.5056 295.728 38.4453C299.804 38.9016 303.88 39.546 308.01 39.6265C311.818 39.707 315.652 39.2238 319.326 38.1768C323.08 37.1029 326.513 35.2505 330.133 33.8008C333.646 32.4048 337.266 31.7874 341.02 31.7874C347.939 31.7337 354.884 33.2908 361.802 32.378C363.492 32.1632 365.128 31.7874 366.737 31.1967C367.97 30.7404 369.633 30.1766 370.518 29.1296C372.18 27.1161 369.767 25.3442 367.97 24.8342C364.43 23.7872 360.435 23.5992 356.761 23.3845C352.766 23.1428 348.77 23.1697 344.774 23.3576C328.605 24.1362 312.622 27.5188 296.399 27.4651C291.786 27.4651 287.174 27.0356 282.562 27.0087C278.647 26.9819 274.168 27.0624 270.495 28.5927C268.188 29.5591 265.936 31.8142 267.223 34.472C268.43 36.9687 271.835 37.8278 274.302 38.1768C274.785 38.3379 275 37.5593 274.49 37.4788Z" fill="#E1E0E0"/>
<path d="M15.1545 74.1246C37.5189 64.4062 62.0286 73.4803 82.65 83.2255C93.1618 88.1921 103.513 93.5077 114.48 97.4272C125.234 101.266 136.416 103.924 147.759 105.454C170.525 108.542 193.828 107.172 216.22 102.152C239.684 96.8903 261.914 87.333 285.19 81.3463C309.405 75.1179 334.719 73.7756 359.416 77.7757C362.42 78.259 365.396 78.8227 368.373 79.467C368.882 79.5744 369.097 78.7959 368.587 78.6885C344.614 73.5877 319.702 73.3461 295.675 78.1247C271.648 82.9034 249.042 92.6754 225.471 99.038C202.597 105.213 178.704 107.709 155.08 105.481C143.334 104.38 131.696 102.099 120.434 98.5548C108.795 94.9037 97.8814 89.5881 86.9137 84.3262C67.0968 74.7958 44.7324 65.1311 22.3144 70.7957C19.7132 71.44 17.2193 72.3259 14.7523 73.3998C14.2964 73.6414 14.6987 74.3394 15.1545 74.1246Z" fill="#E1E0E0"/>
<path d="M106.918 64.5124C133.117 79.1436 164.304 80.2444 193.373 76.1637C226.276 71.5461 257.972 60.6734 290.929 56.4316C309.271 54.0691 327.988 53.7738 346.142 57.8008C346.652 57.9082 346.866 57.1296 346.357 57.0222C314.258 49.9348 281.329 56.19 249.9 63.5191C218.928 70.7407 187.607 79.1705 155.509 77.1033C138.749 76.0295 122.069 72.0294 107.321 63.8144C106.891 63.5459 106.489 64.2439 106.918 64.5124Z" fill="#E1E0E0"/>
<path d="M28.6963 14.3908C51.2216 9.02155 75.2486 11.1424 96.4867 20.4044C106.918 24.9414 116.706 30.8476 126.95 35.7605C137.274 40.7002 148.054 44.1097 159.423 45.64C172.429 47.385 185.596 47.0897 198.628 46.2306C199.138 46.2037 199.138 45.3983 198.628 45.4252C186.856 46.2037 174.977 46.5259 163.231 45.291C151.325 44.0292 139.955 40.915 129.095 35.8947C118.771 31.0892 109.01 25.1831 98.632 20.5118C88.442 15.8405 77.6352 12.7532 66.5066 11.4377C53.8227 9.90748 40.8975 10.6592 28.4818 13.6123C27.9723 13.7197 28.1868 14.4982 28.6963 14.3908Z" fill="#E1E0E0"/>
<path d="M257.167 177.107C254.807 176.623 250.946 175.415 250.758 172.489C250.651 170.69 252.153 169.375 253.735 168.892C255.639 168.274 257.65 168.838 259.5 169.375C262.879 170.368 266.284 171.174 269.824 171.308C273.123 171.442 276.394 170.959 279.585 170.1C283.018 169.187 286.37 167.952 289.775 166.986C293.368 165.965 297.042 165.428 300.796 165.375C307.956 165.267 315.036 166.556 322.169 166.851C325.735 166.986 329.248 166.798 332.761 166.261C336.569 165.67 340.457 164.784 344.345 165.241C347.134 165.563 351.612 167.442 350.701 171.039C349.896 174.18 345.445 175.952 342.71 176.838C328.98 181.295 314.821 173.885 300.904 175.845C292.886 176.972 285.324 180.355 277.225 180.999C273.525 181.295 269.717 181.053 266.204 179.738C262.986 178.503 260.09 175.818 256.416 176.462C255.907 176.543 256.121 177.321 256.631 177.241C258.83 176.865 260.76 177.912 262.611 178.932C264.112 179.738 265.614 180.489 267.25 180.972C270.602 181.993 274.195 182.127 277.681 181.805C285.351 181.08 292.564 178.046 300.153 176.811C308.519 175.469 316.752 177.402 325.011 178.503C331.742 179.389 338.955 179.603 345.284 176.784C347.697 175.711 350.915 173.992 351.532 171.147C352.095 168.596 350.138 166.556 348.019 165.509C344.882 163.979 341.101 164.274 337.776 164.73C333.726 165.267 329.784 166.126 325.682 166.18C317.69 166.314 309.807 164.677 301.842 164.65C298.034 164.65 294.253 165.079 290.553 166.046C286.879 167.012 283.313 168.355 279.666 169.348C275.161 170.556 270.629 170.932 266.016 170.207C263.71 169.831 261.538 169.187 259.312 168.543C257.65 168.059 255.853 167.657 254.11 168.033C251.509 168.596 249.149 171.066 250.302 173.831C251.348 176.355 254.539 177.456 257.006 177.966C257.435 177.993 257.65 177.214 257.167 177.107Z" fill="#E1E0E0"/>
<path d="M136.844 283.122C146.873 280.706 156.688 277.404 166.154 273.297C171.061 271.149 175.861 268.706 181.09 267.417C186.105 266.155 191.307 265.78 196.483 265.914C202.463 266.048 208.389 266.853 214.288 267.793C214.798 267.874 215.012 267.095 214.503 267.014C204.447 265.431 194.096 264.142 183.986 265.967C178.784 266.907 174.011 268.894 169.238 271.068C164.223 273.35 159.155 275.417 153.953 277.243C148.268 279.23 142.502 280.948 136.63 282.344C136.12 282.451 136.335 283.23 136.844 283.122Z" fill="#222222"/>
<path d="M200.211 266.21C204.716 266.102 209.167 265.458 213.512 264.196C217.936 262.934 222.307 261.162 227 261.619C229.387 261.834 231.719 262.505 234.026 263.095C236.439 263.713 238.826 264.33 241.239 264.948C245.878 266.129 250.491 267.31 255.13 268.491C255.639 268.626 255.854 267.847 255.344 267.713C250.544 266.478 245.744 265.27 240.944 264.035C236.546 262.907 232.041 261.404 227.536 260.867C223.112 260.357 218.928 261.726 214.745 263.015C209.999 264.465 205.172 265.297 200.238 265.431C199.701 265.404 199.701 266.21 200.211 266.21Z" fill="#222222"/>
<path d="M247.165 270.371C257.703 268.035 268.778 266.022 279.478 268.492C284.787 269.727 289.775 272.089 294.736 274.264C299.938 276.572 305.167 278.854 310.37 281.163C310.852 281.378 311.255 280.68 310.772 280.465C302.62 276.868 294.548 272.975 286.235 269.78C278.191 266.693 269.824 266.075 261.297 267.042C256.47 267.606 251.67 268.545 246.923 269.619C246.441 269.7 246.655 270.478 247.165 270.371Z" fill="#222222"/>
<path d="M151.889 292.438C154.651 291.954 157.44 291.471 160.202 290.988C162.964 290.505 165.752 289.887 168.541 289.592C171.116 289.323 173.744 289.78 176.291 290.021C179.107 290.317 181.949 290.585 184.765 290.881C185.274 290.934 185.274 290.129 184.765 290.075C181.949 289.78 179.107 289.511 176.291 289.216C173.556 288.948 170.794 288.491 168.032 288.84C162.561 289.511 157.118 290.719 151.674 291.659C151.165 291.766 151.379 292.545 151.889 292.438Z" fill="#222222"/>
<path d="M77.8227 171.361C79.6592 171.361 81.1479 169.871 81.1479 168.032C81.1479 166.194 79.6592 164.703 77.8227 164.703C75.9863 164.703 74.4976 166.194 74.4976 168.032C74.4976 169.871 75.9863 171.361 77.8227 171.361Z" fill="#9A073C"/>
<path d="M86.8055 178.663C87.7682 178.663 88.5486 177.882 88.5486 176.918C88.5486 175.954 87.7682 175.173 86.8055 175.173C85.8429 175.173 85.0625 175.954 85.0625 176.918C85.0625 177.882 85.8429 178.663 86.8055 178.663Z" fill="#9A073C"/>
<path d="M273.82 8.21498C276.086 8.21498 277.923 6.376 277.923 4.10749C277.923 1.83899 276.086 0 273.82 0C271.554 0 269.717 1.83899 269.717 4.10749C269.717 6.376 271.554 8.21498 273.82 8.21498Z" fill="#9A073C"/>
<path d="M283.366 12.8597C284.655 12.8597 285.699 11.814 285.699 10.5241C285.699 9.23417 284.655 8.18848 283.366 8.18848C282.078 8.18848 281.033 9.23417 281.033 10.5241C281.033 11.814 282.078 12.8597 283.366 12.8597Z" fill="#9A073C"/>
<path d="M281.811 11.8938C283.959 11.8938 285.699 10.151 285.699 8.00112C285.699 5.85123 283.959 4.1084 281.811 4.1084C279.664 4.1084 277.923 5.85123 277.923 8.00112C277.923 10.151 279.664 11.8938 281.811 11.8938Z" fill="#0B245B"/>
<path d="M272.506 212.22C275.409 212.22 277.762 209.864 277.762 206.958C277.762 204.052 275.409 201.696 272.506 201.696C269.603 201.696 267.25 204.052 267.25 206.958C267.25 209.864 269.603 212.22 272.506 212.22Z" fill="#0B245B"/>
<path d="M81.684 10.82C83.5353 10.82 85.036 9.31755 85.036 7.46419C85.036 5.61084 83.5353 4.1084 81.684 4.1084C79.8328 4.1084 78.332 5.61084 78.332 7.46419C78.332 9.31755 79.8328 10.82 81.684 10.82Z" fill="#0B245B"/>
<path d="M134.726 240.303C136.992 240.303 138.829 238.464 138.829 236.195C138.829 233.927 136.992 232.088 134.726 232.088C132.46 232.088 130.624 233.927 130.624 236.195C130.624 238.464 132.46 240.303 134.726 240.303Z" fill="#0B245B"/>
<path d="M164.331 163.039C163.768 162.797 164.411 161.804 164.706 161.669C165.055 161.508 165.752 161.723 166.127 161.831C166.717 162.018 167.227 162.341 167.817 162.502C168.46 162.69 169.238 162.743 169.855 162.448C172 161.347 169.452 157.642 172.59 157.642C174.306 157.642 175.754 160.193 177.175 158.287C177.685 157.616 177.899 156.757 178.168 155.951C178.382 155.253 178.57 154.528 179.053 153.965C179.616 153.32 181.332 152.676 181.52 154.072C181.573 154.582 182.405 154.582 182.324 154.072C182.19 153.105 181.493 152.461 180.501 152.407C179.321 152.327 178.463 153.213 177.98 154.179C177.631 154.85 177.47 155.602 177.229 156.327C177.068 156.837 176.854 157.723 176.398 158.045C175.915 158.367 175.54 158.018 175.137 157.777C174.092 157.079 172.831 156.542 171.571 156.998C170.418 157.428 169.962 158.421 170.016 159.602C170.016 159.951 170.123 160.381 170.096 160.73C169.908 161.965 169.077 162.018 168.219 161.831C167.361 161.643 166.637 161.106 165.752 160.945C164.813 160.757 163.875 160.998 163.446 161.938C163.097 162.743 163.312 163.549 164.116 163.871C164.599 164.005 164.813 163.227 164.331 163.039Z" fill="#0B245B"/>
<path d="M178.168 164.326C177.765 163.708 177.765 162.93 178.194 162.312C178.811 161.426 179.669 161.561 180.608 161.695C181.305 161.802 182.163 161.937 182.673 161.319C183.021 160.916 182.968 160.433 183.102 159.977C183.289 159.306 183.718 158.715 184.282 158.312C185.461 157.453 187.124 157.319 188.304 158.232C188.599 158.447 188.948 158.312 189.001 157.936C189.323 155.332 191.897 153.399 194.472 153.856C194.981 153.936 195.196 153.158 194.686 153.077C191.549 152.54 188.572 154.795 188.197 157.936C188.438 157.829 188.653 157.749 188.894 157.641C187.794 156.782 186.4 156.567 185.086 157.024C183.584 157.534 182.887 158.527 182.324 159.923C182.056 160.621 181.734 161.051 180.956 160.943C180.527 160.89 180.125 160.782 179.696 160.755C179.079 160.728 178.543 160.89 178.06 161.292C177.041 162.151 176.773 163.628 177.497 164.755C177.765 165.185 178.463 164.782 178.168 164.326Z" fill="#0B245B"/>
<path d="M191.737 17.3957C191.281 16.9662 191.415 16.6977 192.113 16.5635C192.407 16.1608 192.729 16.0802 193.078 16.3487C193.561 16.4561 193.882 16.8856 194.231 17.2078C194.66 17.5836 195.035 18.0132 195.518 18.3085C196.189 18.6843 197.02 18.8454 197.717 18.4964C198.575 18.0669 198.602 17.2078 198.897 16.4024C199.701 14.2547 202.437 14.0399 203.724 15.8655C203.885 16.0802 204.287 16.1608 204.421 15.8655C204.931 14.6574 205.574 13.2882 206.727 12.5634C207.88 11.8385 209.811 11.9191 210.32 13.4225C210.481 13.9057 211.259 13.6909 211.098 13.2077C210.589 11.758 209.114 11.1137 207.639 11.3553C205.601 11.7043 204.475 13.7446 203.724 15.4628C203.965 15.4628 204.18 15.4628 204.421 15.4628C203.482 14.1205 201.873 13.3956 200.265 13.9862C199.594 14.2278 198.977 14.7111 198.575 15.3285C198.361 15.6507 198.227 15.9997 198.092 16.3756C198.012 16.6172 198.012 16.9125 197.878 17.1273C197.529 17.7179 196.564 17.9595 195.947 17.6105C194.633 16.8856 193.346 14.5769 191.523 15.5165C190.504 16.0266 190.369 17.4763 191.335 18.0937C191.791 18.3622 192.193 17.6642 191.737 17.3957Z" fill="#9A073C"/>
<path d="M208.952 17.182C208.764 14.4974 212.197 15.3833 213.564 16.0545C214.262 16.4035 215.12 17.0478 215.871 16.4572C216.112 16.2693 216.219 16.0008 216.326 15.7323C216.729 14.8464 216.997 14.2021 218.069 13.8799C219.732 13.3967 221.341 14.4437 222.682 15.3028C223.111 15.5713 223.513 14.8733 223.084 14.6048C221.663 13.7189 220.054 12.7255 218.311 13.0209C217.748 13.1014 217.184 13.3162 216.729 13.6652C216.031 14.1752 215.897 15.0612 215.2 15.4907C214.53 15.8934 214.262 15.4907 213.591 15.1686C213.243 15.0075 212.894 14.8464 212.519 14.7122C211.821 14.4706 211.07 14.3632 210.346 14.5242C209.086 14.8196 208.067 15.8397 208.148 17.182C208.174 17.6921 208.979 17.6921 208.952 17.182Z" fill="#9A073C"/>
<path d="M286.557 128.379C284.787 124.486 291.491 122.768 291.947 126.849C292.108 128.218 291.357 129.668 289.963 130.044C288.408 130.446 286.745 129.399 286.316 127.896C286.182 127.386 285.404 127.601 285.538 128.111C286.075 130.044 288.193 131.332 290.177 130.822C292.135 130.312 293.1 128.138 292.644 126.258C292.162 124.272 290.097 123.305 288.193 123.815C285.967 124.406 284.921 126.742 285.86 128.836C286.075 129.265 286.772 128.836 286.557 128.379Z" fill="#9A073C"/>
<path d="M291.545 131.467C290.097 131.332 289.56 129.399 290.553 128.433C291.384 127.601 292.805 127.654 293.69 128.352C294.602 129.077 295.487 131.198 294.468 132.218C293.127 133.561 291.491 131.386 290.848 130.42C290.553 129.99 289.855 130.393 290.15 130.822C291.089 132.272 293.234 134.554 295.031 132.782C296.452 131.386 295.433 128.567 294.039 127.574C292.617 126.554 290.284 126.903 289.48 128.567C288.675 130.178 289.855 132.111 291.572 132.272C292.054 132.326 292.054 131.52 291.545 131.467Z" fill="#9A073C"/>
<path d="M47.95 97.7207C49.0226 97.667 49.5858 96.9421 50.3366 96.271C52.1065 94.687 54.1445 96.1904 55.2707 97.7475C56.3433 99.2241 57.8987 100.271 59.2663 98.4992C59.9098 97.667 60.2316 96.432 61.1166 95.8414C62.9132 94.6333 64.4417 97.0226 65.568 98.0697C66.8551 99.2509 69.5099 99.7878 70.0999 97.5864C70.2339 97.0763 69.4563 96.8616 69.3222 97.3717C69.0272 98.5261 67.6328 98.4992 66.8015 98.016C66.1579 97.6401 65.7021 97.0495 65.1926 96.5394C64.4417 95.734 63.6104 94.9555 62.4842 94.7407C60.6339 94.4185 59.8026 96.083 58.9713 97.4253C58.7568 97.8012 58.4886 98.3113 58.0864 98.5261C57.121 99.0361 56.4238 98.016 55.9143 97.3448C55.2707 96.432 54.5467 95.6535 53.5009 95.1702C52.6428 94.7676 51.6238 94.6333 50.7388 95.0092C49.7198 95.4387 49.0763 96.8884 47.9232 96.9421C47.4405 96.9421 47.4405 97.7475 47.95 97.7207Z" fill="#9A073C"/>
<path d="M66.694 92.1908C67.8203 93.5332 69.8314 95.3319 71.6013 93.8553C72.0303 93.4795 72.2717 92.9425 72.7276 92.5667C73.398 92.0566 74.2829 91.9492 75.0605 92.1908C76.7499 92.6472 77.7421 94.258 78.627 95.6272C78.7879 95.8688 79.1902 95.9225 79.3243 95.6272C80.4773 93.1036 83.5612 92.4862 85.9746 93.4526C86.4573 93.6406 86.6718 92.862 86.1891 92.6741C83.4807 91.5734 79.9142 92.3788 78.627 95.1976C78.8684 95.1976 79.0829 95.1976 79.3243 95.1976C78.1175 93.3184 76.589 91.1707 74.0684 91.2512C73.1834 91.2781 72.379 91.6539 71.789 92.2982C71.0918 93.1036 70.5018 93.7479 69.3488 93.3989C68.4638 93.1305 67.8203 92.2982 67.2303 91.6002C66.9353 91.2244 66.3722 91.7881 66.694 92.1908Z" fill="#9A073C"/>
<path d="M114.989 120.271C114.641 119.573 114.238 118.848 113.916 118.123C113.568 117.372 113.729 117.076 114.185 116.432C114.775 115.6 115.686 114.848 116.732 115.412C117.483 115.815 117.966 116.727 118.18 117.506C118.556 118.821 118.234 120.701 116.705 121.13C115.445 121.479 113.809 120.701 113.863 119.251C113.863 118.741 113.058 118.741 113.058 119.251C113.005 121.05 114.801 122.177 116.464 121.989C118.502 121.748 119.36 119.6 119.065 117.774C118.77 116.002 117.134 113.747 115.096 114.58C114.104 114.982 113.353 116.029 112.897 116.969C112.629 117.533 112.683 117.56 112.951 118.123C113.38 118.982 113.809 119.841 114.238 120.674C114.533 121.13 115.23 120.727 114.989 120.271Z" fill="#0B245B"/>
<path d="M117.966 125.534C116.947 124.326 115.204 121.963 116.706 120.46C117.778 119.386 119.709 119.789 120.594 120.863C121.506 121.963 121.693 124.111 120.272 124.917C119.065 125.615 117.322 124.943 117.108 123.547C117.027 123.037 116.25 123.252 116.33 123.762C116.652 125.588 118.878 126.447 120.487 125.722C122.444 124.809 122.525 122.098 121.372 120.514C120.272 118.984 117.859 118.447 116.357 119.708C114.185 121.507 116.062 124.46 117.43 126.071C117.725 126.5 118.288 125.937 117.966 125.534Z" fill="#9A073C"/>
<path d="M276.528 71.196C276.555 68.8335 279.799 69.5315 281.194 69.6926C282.4 69.8268 283.5 69.6657 284.573 69.0751C285.752 68.4576 286.718 67.4912 287.871 66.82C288.622 66.3636 289.533 65.9609 290.418 65.9609C291.357 65.9878 291.947 66.5516 292.778 66.9006C294.709 67.6791 295.942 65.8804 297.149 64.6992C299.536 62.3635 302.941 63.33 305.73 64.2965C306.213 64.4575 306.427 63.679 305.945 63.5179C303.451 62.6588 300.287 61.7192 297.82 63.1421C296.64 63.8132 295.942 65.0482 294.87 65.8267C293.341 66.9274 292.054 65.1824 290.445 65.1555C286.986 65.1019 285.163 69.102 281.676 68.914C280.175 68.8335 278.727 68.2697 277.279 68.9409C276.34 69.3704 275.75 70.1221 275.723 71.1691C275.696 71.7061 276.501 71.7061 276.528 71.196Z" fill="#0B245B"/>
<path d="M296.587 70.2839C298.303 67.8409 301.521 66.6596 304.417 67.4919C305.677 67.8677 306.857 68.8879 308.252 68.8073C309.405 68.7268 310.021 67.7872 310.799 67.0623C312.059 65.9079 313.695 64.9683 315.465 65.022C316.538 65.0488 317.369 65.4515 318.2 66.1495C318.468 66.3912 318.683 66.6059 319.058 66.7133C319.595 66.8475 320.077 66.6059 320.56 66.3912C321.391 66.0153 322.249 65.6931 323.134 65.4515C324.958 64.9951 326.808 64.9146 328.658 65.1562C329.168 65.2099 329.168 64.4045 328.658 64.3508C326.889 64.1092 325.119 64.1629 323.376 64.5656C322.598 64.7535 321.82 64.9951 321.07 65.2905C320.48 65.5321 320.185 65.6932 319.514 65.6932C318.79 65.6932 318.844 65.5858 318.361 65.2099C316.082 63.4649 313.025 64.2703 310.96 65.9079C310.397 66.3375 309.941 66.9281 309.405 67.3576C308.117 68.3778 307.098 67.7335 305.784 67.1429C304.658 66.6328 303.478 66.3912 302.245 66.4448C299.697 66.5522 297.391 67.814 295.943 69.8812C295.594 70.3107 296.292 70.7134 296.587 70.2839Z" fill="#0B245B"/>
<path d="M238.262 250.341C238.771 253.563 239.281 256.811 239.764 260.033C229.171 263.469 223.969 265.644 224.184 266.556C224.452 267.684 232.926 266.852 249.605 264.14C248.64 259.039 247.701 253.939 246.736 248.838C243.893 249.321 241.078 249.831 238.262 250.341Z" fill="black"/>
<path d="M215.468 142.473C215.28 146.124 215.012 151.332 214.77 157.641C214.529 164.326 214.395 167.816 214.422 172.111C214.422 173.964 214.502 181.508 215.468 191.226C216.272 199.414 217.532 211.656 222.011 226.717C223.781 232.677 226.516 240.677 230.78 249.805C232.737 250.1 235.043 250.261 237.671 250.154C242.605 249.912 246.601 248.704 249.363 247.577C248.558 244.946 247.432 241.214 246.252 236.731C244.67 230.663 240.111 212.381 238.342 187.817C237.457 175.467 237.135 160.057 238.69 142.339C230.967 142.366 223.217 142.419 215.468 142.473Z" fill="white"/>
<path opacity="0.09" d="M238.021 144.539C237.512 146.472 236.841 149.264 236.117 152.647C234.24 161.586 232.309 174.339 232.497 195.896C232.604 209.158 233.543 227.494 236.975 249.643C238.316 249.508 239.684 249.347 241.105 249.132C244.081 248.676 246.843 248.085 249.364 247.414C248.238 243.763 246.683 238.34 245.074 231.736C239.362 208.192 237.753 188.218 237.324 175.037C237.083 167.197 237.083 156.808 238.021 144.539Z" fill="#606060"/>
<path d="M238.101 143.172C235.419 170.341 237.082 197.912 243.008 224.57C244.697 232.141 246.709 239.604 249.068 246.987C249.229 247.47 250.007 247.255 249.846 246.772C241.587 220.812 237.457 193.59 237.672 166.341C237.725 158.609 238.154 150.85 238.905 143.145C238.959 142.662 238.154 142.662 238.101 143.172Z" fill="#222222"/>
<path d="M214.369 167.251C213.377 189.265 216.461 211.413 223.379 232.327C225.31 238.179 227.563 243.924 230.11 249.535C230.325 250.018 231.022 249.589 230.807 249.132C221.824 229.132 216.541 207.521 215.281 185.641C214.932 179.52 214.905 173.399 215.174 167.251C215.2 166.714 214.396 166.741 214.369 167.251Z" fill="#222222"/>
<path d="M230.432 249.778C231.343 250.798 233.435 250.557 234.669 250.584C236.546 250.61 238.45 250.423 240.3 250.154C242.311 249.859 244.322 249.429 246.307 248.946C247.299 248.704 249.364 248.651 249.873 247.55C250.088 247.094 249.39 246.664 249.176 247.147C248.935 247.711 247.594 247.818 247.084 247.926C246.333 248.114 245.609 248.275 244.859 248.463C243.437 248.785 242.043 249.08 240.622 249.295C239.147 249.537 237.672 249.698 236.197 249.751C235.071 249.805 231.853 250.154 231.022 249.214C230.646 248.812 230.083 249.402 230.432 249.778Z" fill="#222222"/>
<path d="M207.558 142.313C206.78 144.004 205.734 147.226 204.984 150.071C204.045 153.696 203.804 155.87 203.267 159.038C202.275 164.891 201.605 165.884 200.157 172.3C198.628 179.173 197.931 184.461 197.395 188.676C196.966 191.952 196.188 198.636 195.839 207.281C195.679 211.013 195.598 213.214 195.679 216.248C195.893 225.778 197.422 233.161 198.092 236.06C199.889 244.034 202.517 250.853 205.145 256.383C206.351 257 208.175 257.779 210.481 258.289C213.323 258.906 216.97 259.712 220.456 257.94C221.422 257.457 223.621 256.114 225.283 252.947C223.996 249.43 222.414 244.436 221.154 238.315C218.043 223.12 219.169 211.093 219.947 203.522C221.395 189.213 224.72 178.475 230.432 159.951C232.363 153.722 234.079 148.675 235.259 145.32C235.661 142.662 236.6 134.688 232.336 131.359C226.088 126.42 211.527 133.749 207.558 142.313Z" fill="white"/>
<path opacity="0.08" d="M231.478 156.595C229.735 159.36 227.321 163.467 224.935 168.649C221.985 175.038 217.641 186.26 215.308 208.623C214.02 220.838 213.162 237.939 215.147 258.584C215.978 258.665 219.518 258.96 222.548 256.517C224.103 255.255 224.908 253.805 225.31 252.893C223.996 249.268 222.307 243.953 221.019 237.375C217.212 218.207 219.598 202.797 221.368 192.059C222.816 183.092 225.632 170.716 231.478 156.595Z" fill="#606060"/>
<path d="M211.768 258.235C212.68 261.51 213.592 264.812 214.504 268.087C200.13 272.463 193.078 275.202 193.319 276.275C193.587 277.51 203.375 276.598 222.682 273.537C222.173 268.275 221.663 263.04 221.181 257.778C218.016 257.913 214.879 258.074 211.768 258.235Z" fill="black"/>
<path d="M207.263 142.635C204.421 149.83 202.973 157.454 201.444 165.025C199.835 172.944 198.28 180.864 197.154 188.864C195.062 203.683 194.418 218.851 197.288 233.617C198.816 241.563 201.391 249.295 205.172 256.436C205.413 256.893 206.11 256.49 205.869 256.034C191.522 228.731 195.866 196.784 201.712 167.817C203.402 159.414 204.903 150.85 208.068 142.849C208.229 142.366 207.451 142.151 207.263 142.635Z" fill="#222222"/>
<path d="M231.129 156.541C222.146 180.514 216.139 206.287 219.625 231.979C220.591 239.066 222.28 246.02 224.747 252.731C224.935 253.214 225.713 253 225.525 252.516C216.595 228.381 218.419 201.911 225.123 177.454C227.053 170.447 229.36 163.548 231.907 156.729C232.095 156.245 231.317 156.057 231.129 156.541Z" fill="#222222"/>
<path d="M205.252 256.409C209.033 258.503 213.377 259.389 217.668 258.825C221.181 258.342 225.257 256.731 225.605 252.677C225.659 252.167 224.854 252.167 224.801 252.677C224.425 256.892 219.33 258.02 215.871 258.181C212.305 258.342 208.792 257.456 205.681 255.711C205.198 255.47 204.796 256.168 205.252 256.409Z" fill="#222222"/>
<path d="M213.082 72.3514C212.358 73.2105 211.339 74.5259 210.374 76.2709C207.076 82.0698 206.861 87.7612 206.808 92.7546C206.754 100.03 206.7 103.681 207.478 111.601C208.202 119.01 208.39 129.641 205.789 143.199C208.122 144.917 211.527 146.904 215.979 147.951C228.797 150.957 239.416 143.467 241.427 142.018C238.879 127.064 237.485 115.091 236.68 106.688C236.171 101.372 234.294 93.6405 230.566 78.1502C229.44 73.4252 228.287 68.915 224.801 67.6264C219.974 65.8009 214.048 71.4117 213.082 72.3514Z" fill="#9A073C"/>
<path opacity="0.1" d="M224.667 68.001C225.096 69.746 225.713 72.3769 226.33 75.6253C227.134 79.8134 228.207 86.1491 228.958 95.5722C229.735 105.291 230.62 123.519 230.888 147.09C232.712 146.553 234.911 145.748 237.244 144.459C238.799 143.6 240.14 142.688 241.266 141.828C241.078 139.761 240.73 136.62 240.167 132.835C239.443 128.083 238.718 124.781 238.37 123.143C237.512 118.902 236.546 112.566 236.439 103.76C235.34 99.089 234.508 95.3306 233.945 92.8338C232.39 85.7464 231.934 83.1423 230.754 78.8469C229.574 74.5246 228.341 71.0883 227.563 69.0211C226.598 68.6453 225.632 68.3231 224.667 68.001Z" fill="#606060"/>
<path d="M213.055 74.9283C213.296 75.4116 213.698 75.5726 214.583 76.0022C215.334 76.378 216.058 76.8344 216.809 77.1566C219.115 78.1499 221.823 82.5527 222.252 83.2507C223.888 85.9085 225.792 89.0227 226.892 93.5328C227.187 94.7141 227.857 97.7746 227.079 108.11C226.248 118.715 225.175 120.191 226.007 125.48C226.623 129.319 227.401 133.91 231.182 136.406C234.695 138.715 238.744 137.91 239.575 137.749C244.67 136.755 247.567 132.809 250.382 128.97C254.673 123.144 256.309 117.319 257.006 113.936C257.328 112.352 257.274 107.708 257.193 98.4457C257.086 88.8884 256.925 85.5863 254.431 82.7943C252.742 80.9151 250.677 80.0291 249.256 79.5727C249.363 78.9821 249.39 78.0962 248.907 77.3445C247.996 75.9485 245.824 75.9753 244.429 76.0022C238.449 76.1633 233.998 80.1902 233.783 80.3781C230.056 83.8413 228.956 88.083 228.608 89.8549C227.857 86.526 226.623 83.9755 225.658 82.3379C224.827 80.9151 223.593 79.4654 221.099 76.5123C219.142 74.2035 218.203 73.3175 216.728 72.8343C216.407 72.7269 213.966 72.0021 213.162 73.1028C212.786 73.6129 212.786 74.3914 213.055 74.9283Z" fill="white"/>
<path opacity="0.11" d="M212.867 73.935C213.028 73.6397 214.825 74.3108 215.012 74.3914C217.667 75.4115 220.027 77.5324 223.057 82.4453C224.613 84.9688 226.57 88.5394 228.233 93.1838C229.413 91.9757 230.405 90.9824 231.182 90.2307C231.182 90.2307 234.052 87.4655 238.691 84.7809C239.147 84.5124 239.71 84.1903 240.112 84.4319C240.943 84.8883 240.058 87.1165 240.3 89.1837C240.488 90.7408 241.399 92.8885 244.859 95.2778C244.939 95.7342 244.966 96.3785 244.59 96.808C243.84 97.6403 241.909 96.9691 240.917 96.6201C239.308 96.0563 236.197 94.5798 232.523 90.2575C232.175 91.6536 231.719 93.6402 231.37 96.0832C231.048 98.2041 230.163 105.265 231.638 114.339C232.228 117.936 233.328 122.742 235.58 128.218C236.572 128.648 237.833 129.05 239.334 129.292C242.472 129.775 245.073 129.158 246.575 128.675C245.69 129.104 244.483 129.829 243.437 131.091C242.177 132.621 242.15 133.775 241.104 135.198C240.407 136.165 239.147 137.373 236.814 138.232C236.09 138.151 234.99 137.963 233.784 137.427C230.11 135.789 228.447 132.326 227.696 130.715C226.704 128.54 225.176 124.138 226.624 109.238C227.455 100.728 228.367 98.0698 226.972 93.2106C225.9 89.479 224.049 86.3917 223.406 85.3447C222.253 83.4654 220.188 80.1096 216.434 77.0223C214.664 75.5189 212.706 74.284 212.867 73.935Z" fill="#606060"/>
<path d="M242.767 79.9498C242.284 80.5941 241.667 81.5338 241.185 82.7687C240.916 83.4935 240.273 85.1849 240.434 87.3326C240.729 91.6011 243.786 94.2052 244.349 94.6616C244.724 94.9569 245.046 95.1986 245.261 95.3328C244.939 96.4335 244.563 98.0711 244.429 100.085C244.215 102.93 244 106.125 245.663 107.065C246.735 107.655 248.344 107.253 249.229 106.393C249.444 106.179 250.061 105.508 250.221 102.474C250.409 98.8765 249.658 97.3731 250.731 96.3261C251.187 95.8429 251.964 95.5476 252.635 95.2522C253.386 94.9301 254.056 94.769 254.539 94.6616C254.244 96.863 254.029 98.8228 253.868 100.407C253.681 102.367 253.6 103.36 254.271 103.977C254.887 104.541 255.906 104.648 256.684 104.299C257.703 103.843 258.025 102.581 258.588 100.058C259.044 98.0711 259.419 96.4066 259.178 94.1516C259.044 92.9972 258.802 92.0575 258.588 91.4132C258.534 90.9568 258.4 90.2857 258.186 89.5071C257.73 87.95 257.301 87.4937 257.033 86.5003C256.63 85.0775 257.086 84.3795 257.194 82.7687C257.301 81.5069 257.194 79.7082 256.282 77.4531C255.933 77.48 255.209 77.5337 254.458 78.0437C253.547 78.6344 253.171 79.4935 253.037 79.7888C252.34 79.6277 251.08 79.4666 249.631 79.8693C247.138 80.5405 245.824 82.3929 245.475 82.9566C246.172 81.4264 245.582 79.923 244.644 79.5471C243.839 79.1981 242.874 79.8961 242.767 79.9498Z" fill="black"/>
<path d="M245.797 88.2729C246.065 87.7628 247.406 86.6352 247.862 87.5748C248.076 88.0312 248.774 87.6285 248.559 87.1721C248.264 86.5547 247.54 86.3668 246.896 86.501C246.119 86.6352 245.475 87.1721 245.1 87.8702C244.859 88.3265 245.556 88.7292 245.797 88.2729Z" fill="white"/>
<path d="M253.654 86.2049C253.815 85.8559 253.976 85.4532 254.244 85.1848C254.512 84.9163 255.317 84.621 255.344 85.2385C255.37 85.7485 256.175 85.7485 256.148 85.2385C256.094 84.4599 255.424 83.9498 254.646 84.0572C253.761 84.2183 253.306 85.0237 252.957 85.7754C252.742 86.2586 253.44 86.6882 253.654 86.2049Z" fill="white"/>
<path d="M253.869 88.7562C253.869 88.783 253.869 88.8099 253.869 88.8367C253.815 88.8904 253.762 88.9441 253.735 88.971C253.601 89.0515 253.386 88.971 253.413 88.8099C253.413 88.8099 253.413 88.7294 253.44 88.7562L253.359 88.8367C253.547 88.8367 253.735 88.8367 253.922 88.8367C253.896 88.8099 253.896 88.8099 253.869 88.7831C253.896 88.8099 253.896 88.8099 253.896 88.8099C253.869 88.783 253.896 88.783 253.896 88.8367C253.922 88.9978 253.842 89.1052 253.627 89.1857C253.547 89.1589 253.493 89.1589 253.413 89.1321C253.306 89.0784 253.332 88.9173 253.359 88.8367C253.386 88.8099 253.359 88.8099 253.332 88.8636C253.359 88.8367 253.359 88.8367 253.332 88.8636C253.145 88.9978 253.064 89.2126 253.198 89.4274C253.306 89.5884 253.574 89.6958 253.762 89.5616C253.949 89.4274 254.137 89.2394 254.164 88.971C254.164 88.6757 253.949 88.4072 253.654 88.4072C253.359 88.4072 253.145 88.5951 253.118 88.8904C253.091 89.1052 253.225 89.2931 253.359 89.4274C253.52 89.5884 253.762 89.5616 253.922 89.4274C254.271 89.1589 254.352 88.5951 253.949 88.3267C253.762 88.2193 253.52 88.1924 253.332 88.2998C253.091 88.434 253.064 88.7562 253.118 88.9978C253.145 89.2126 253.413 89.32 253.601 89.2663C253.815 89.1857 253.896 88.971 253.869 88.7562Z" fill="white"/>
<path d="M249.578 89.5873C248.8 90.0437 247.755 89.8289 247.245 89.0772C246.95 88.6477 246.253 89.0503 246.548 89.4799C247.325 90.5806 248.8 90.9564 250.007 90.2853C250.436 90.0168 250.034 89.3188 249.578 89.5873Z" fill="white"/>
<path d="M248.988 91.3326C248.398 91.789 247.889 92.3797 247.54 93.0508C247.299 93.5072 247.996 93.9099 248.237 93.4535C248.559 92.836 249.015 92.326 249.578 91.8964C249.739 91.7622 249.712 91.4669 249.578 91.3326C249.391 91.1716 249.149 91.1984 248.988 91.3326Z" fill="white"/>
<path d="M255.505 88.38C256.041 87.7625 256.443 87.0645 256.712 86.286C256.873 85.8028 256.095 85.588 255.934 86.0712C255.719 86.7155 255.371 87.3062 254.942 87.8162C254.62 88.2189 255.183 88.7827 255.505 88.38Z" fill="white"/>
<path d="M255.558 89.3995C256.201 89.2652 256.952 89.1042 257.462 89.6411C257.81 90.0169 258.373 89.4531 258.025 89.0773C257.301 88.2988 256.255 88.433 255.316 88.6478C254.834 88.7283 255.048 89.5068 255.558 89.3995Z" fill="white"/>
<path d="M212.733 74.3111C213.967 72.3781 216.89 73.5325 218.364 74.499C220.134 75.6266 221.475 77.3179 222.682 79.0092C225.122 82.4187 227.294 86.1235 228.099 90.2847C228.206 90.7948 228.984 90.58 228.876 90.0699C227.938 85.1033 225.042 80.3247 221.77 76.5125C219.866 74.3111 214.476 70.1499 212.036 73.9352C211.768 74.3379 212.465 74.7675 212.733 74.3111Z" fill="#222222"/>
<path d="M214.396 76.1373C220.832 79.7615 224.452 86.5537 226.275 93.48C226.409 93.9901 227.187 93.7753 227.053 93.2652C225.176 86.151 221.395 79.1441 214.798 75.4393C214.342 75.1708 213.94 75.8688 214.396 76.1373Z" fill="#222222"/>
<path d="M228.876 89.9363C229.546 85.1845 232.576 81.2113 236.733 78.9293C238.878 77.7481 241.265 77.0232 243.705 76.6742C244.858 76.5132 246.199 76.3521 247.325 76.7816C248.559 77.238 249.738 79.1978 248.183 80.0837C247.727 80.3253 248.13 81.0233 248.585 80.7817C250.302 79.8152 249.873 77.3454 248.371 76.4058C246.038 74.9292 242.176 75.9762 239.79 76.7816C233.89 78.6877 229.01 83.4663 228.125 89.7752C228.018 90.2316 228.795 90.4464 228.876 89.9363Z" fill="#222222"/>
<path d="M230.673 91.1448C231.987 89.6146 233.649 88.326 235.258 87.1179C236.814 85.9366 238.476 84.9702 240.407 84.5406C240.916 84.4333 240.702 83.6547 240.192 83.7621C238.208 84.2185 236.465 85.2118 234.856 86.4199C233.194 87.6817 231.477 88.9971 230.11 90.5811C229.761 90.9569 230.324 91.5475 230.673 91.1448Z" fill="#222222"/>
<path d="M240.515 84.6213C241.078 83.3327 241.802 82.0978 242.687 80.9971C242.848 80.8091 243.035 80.487 243.25 80.3527C243.437 80.0037 243.679 79.9769 244.027 80.2991C244.457 80.2991 244.644 80.4601 244.644 80.836C244.939 81.3998 244.966 82.3662 245.073 83.0105C245.181 83.5206 245.958 83.3058 245.851 82.7958C245.636 81.7756 245.368 78.1245 243.438 79.1178C242.687 79.4937 242.124 80.4333 241.641 81.0776C240.917 82.0709 240.327 83.1179 239.817 84.2186C239.603 84.675 240.3 85.1045 240.515 84.6213Z" fill="#222222"/>
<path d="M245.69 83.2511C247.057 81.4792 249.846 79.0362 252.233 80.3517C252.689 80.5933 253.091 79.8953 252.635 79.6537C249.873 78.1771 246.762 80.5933 245.1 82.6873C244.805 83.09 245.368 83.6538 245.69 83.2511Z" fill="#222222"/>
<path d="M253.011 80.2176C253.386 79.627 255.129 77.5061 255.88 78.0699C256.282 78.3652 256.363 79.4122 256.47 79.8955C256.631 80.6472 256.685 81.3989 256.711 82.1774C256.738 82.6875 257.543 82.6875 257.516 82.1774C257.489 81.1035 257.355 80.0565 257.087 79.0095C256.926 78.4189 256.792 77.2914 256.095 77.1034C255.451 76.9424 254.566 77.5598 254.083 77.9088C253.359 78.4189 252.796 79.0632 252.34 79.8149C252.045 80.2445 252.743 80.6472 253.011 80.2176Z" fill="#222222"/>
<path d="M231.718 89.8289C233.569 91.6276 235.526 93.292 237.618 94.7954C239.683 96.272 241.694 97.319 244.295 97.1848C244.805 97.1579 244.805 96.3525 244.295 96.3794C241.64 96.5136 239.683 95.3324 237.618 93.829C235.714 92.433 233.944 90.9027 232.255 89.2651C231.906 88.9161 231.343 89.4799 231.718 89.8289Z" fill="#222222"/>
<path d="M226.302 92.5935C229.225 105.587 221.609 119.789 227.911 132.219C229.091 134.554 230.887 136.675 233.354 137.722C235.768 138.742 238.557 138.662 241.051 137.856C246.575 136.085 250.141 130.957 252.876 126.125C254.619 123.091 256.067 119.843 256.926 116.433C257.355 114.742 257.623 112.97 257.703 111.225C257.784 109.211 257.516 107.198 257.596 105.184C257.623 104.674 256.818 104.674 256.791 105.184C256.684 108.46 257.113 111.574 256.47 114.822C255.907 117.722 254.861 120.541 253.547 123.171C251.107 128.111 247.808 133.668 242.74 136.272C240.112 137.615 236.867 138.125 234.052 137.078C231.29 136.058 229.466 133.615 228.286 131.011C225.766 125.346 226.061 118.903 226.731 112.889C227.482 106.07 228.662 99.1708 227.133 92.3519C226.945 91.8955 226.168 92.0834 226.302 92.5935Z" fill="#222222"/>
<path d="M238.234 119.468C236.733 122.099 235.741 124.944 235.311 127.951C235.231 128.461 236.009 128.676 236.089 128.166C236.518 125.213 237.457 122.448 238.932 119.871C239.2 119.441 238.503 119.038 238.234 119.468Z" fill="#222222"/>
<path d="M238.745 119.763C242.714 119.414 246.897 118.662 250.866 119.092C251.375 119.145 251.375 118.34 250.866 118.286C246.897 117.83 242.714 118.608 238.745 118.957C238.235 119.011 238.235 119.816 238.745 119.763Z" fill="#222222"/>
<path d="M235.715 128.676C237.672 129.83 239.952 129.723 242.15 129.669C244.457 129.588 246.763 129.32 248.774 128.112C249.23 127.843 248.801 127.145 248.372 127.414C246.468 128.568 244.323 128.783 242.15 128.864C240.112 128.944 237.967 129.078 236.117 128.005C235.688 127.736 235.286 128.434 235.715 128.676Z" fill="#222222"/>
<path d="M250.49 118.904C249.98 121.857 249.203 124.703 248.157 127.495C247.969 127.978 248.747 128.193 248.935 127.71C250.007 124.918 250.785 122.045 251.268 119.119C251.348 118.609 250.57 118.394 250.49 118.904Z" fill="#222222"/>
<path d="M238.02 120.863C239.334 123.762 243.062 124.487 245.931 124.514C246.441 124.514 246.441 123.708 245.931 123.708C243.357 123.655 239.898 123.064 238.718 120.433C238.503 119.977 237.806 120.406 238.02 120.863Z" fill="#222222"/>
<path d="M243.813 123.468C243.732 124.139 243.652 124.81 243.571 125.454C243.518 125.964 244.322 125.964 244.376 125.454C244.456 124.783 244.537 124.112 244.617 123.468C244.671 122.957 243.866 122.957 243.813 123.468Z" fill="#222222"/>
<path d="M245.341 123.468C245.261 124.139 245.18 124.81 245.127 125.481C245.073 125.991 245.877 125.991 245.931 125.481C246.012 124.81 246.092 124.139 246.146 123.468C246.199 122.957 245.395 122.957 245.341 123.468Z" fill="#222222"/>
<path d="M246.039 124.596C247.943 124.166 249.525 122.985 250.517 121.32C250.785 120.864 250.088 120.461 249.82 120.918C248.908 122.421 247.513 123.414 245.824 123.817C245.315 123.951 245.529 124.73 246.039 124.596Z" fill="#222222"/>
<path d="M240.166 83.1715C239.361 87.9233 240.246 93.5879 245.1 95.7625C245.556 95.9772 245.985 95.2792 245.502 95.0644C240.97 93.0241 240.192 87.7891 240.943 83.3863C241.024 82.8762 240.246 82.6615 240.166 83.1715Z" fill="#222222"/>
<path d="M256.657 81.8827C256.711 83.4129 256.684 84.97 256.899 86.4734C257.113 88.111 258.588 89.9366 257.81 91.5742C257.596 92.0306 258.293 92.4601 258.508 91.9769C259.205 90.5004 258.588 89.2654 258.079 87.8157C257.408 85.9633 257.569 83.8156 257.489 81.8558C257.435 81.3458 256.631 81.3458 256.657 81.8827Z" fill="#222222"/>
<path d="M247.299 95.198C248.479 94.5806 249.819 95.2249 250.087 96.5135C250.114 96.6477 250.302 96.594 250.275 96.4598C249.953 95.0369 248.479 94.3389 247.191 95.0101C247.084 95.0906 247.191 95.2786 247.299 95.198Z" fill="white"/>
<path d="M249.337 96.5674C249.524 96.7822 249.658 97.0238 249.739 97.2923C249.792 97.4265 249.98 97.3728 249.926 97.2386C249.819 96.9433 249.658 96.6748 249.471 96.4332C249.39 96.3258 249.229 96.4869 249.337 96.5674Z" fill="white"/>
<path d="M254.727 94.6878C254.968 93.5871 255.666 92.6743 256.685 92.1643C256.792 92.1106 256.711 91.9226 256.577 92.0032C255.505 92.5133 254.781 93.4797 254.539 94.6341C254.512 94.7683 254.7 94.822 254.727 94.6878Z" fill="white"/>
<path d="M207.503 37.7722C205.653 38.7118 204.097 40.4836 203.4 41.2622C201.684 43.222 200.799 45.0475 199.834 47.0878C199.029 48.7523 198.091 51.1148 197.34 54.0679C198.386 54.2558 199.431 54.4169 200.477 54.6048C200.424 55.625 200.424 57.1284 200.826 58.9002C201.201 60.511 201.818 63.0883 203.963 64.887C206.913 67.4105 210.828 66.793 211.552 66.6857C211.606 67.9474 211.874 69.7461 212.893 71.5985C213.161 72.0549 213.429 72.4845 213.698 72.8603C215.172 72.4308 217.452 71.5448 219.677 69.7193C225.362 65.1286 226.14 58.2828 226.381 56.2961C226.73 53.2356 227.4 47.4637 223.619 42.685C219.677 37.7453 212.196 35.4097 207.503 37.7722Z" fill="white"/>
<path d="M202.007 43.3562C202.757 42.2287 204.205 40.5642 205.841 39.4098C208.469 37.5574 209.649 38.336 210.99 36.6983C211.955 35.5171 212.572 33.5842 211.848 32.6714C210.695 31.2217 206.592 32.9667 206.056 33.2083C204.876 33.7184 200.988 35.356 199.432 39.4904C198.145 42.9535 199.003 46.7389 199.593 46.8194C199.754 46.8463 199.861 46.5778 200.719 45.2623C201.122 44.5912 201.577 43.9737 202.007 43.3562Z" fill="#0B245B"/>
<path d="M207.852 35.2762C207.638 35.9742 207.316 37.3702 208.389 40.1086C210.293 45.0214 214.744 49.4242 216.97 48.6189C217.452 48.4309 217.962 47.9477 218.927 47.894C219.169 47.894 220.134 47.8403 220.885 48.4309C222.065 49.3705 222.118 51.4109 221.341 52.7263C221.207 52.968 220.483 54.0687 219.383 54.1492C218.418 54.2297 218.096 53.478 217.318 53.4243C215.414 53.317 213.779 57.505 213.564 58.0688C213.135 59.1426 212.089 61.9346 212.84 65.5052C213.001 66.2837 213.376 67.9214 214.529 69.6127C217.023 73.2369 221.207 74.1229 222.762 74.445C224.29 74.7672 230.109 75.9753 234.641 72.2168C235.365 71.6262 237.752 69.5858 238.396 66.1227C239.495 60.2702 234.588 55.8942 234.293 55.6526C234.078 52.619 233.354 47.7866 230.807 42.4979C229.198 39.1421 227.696 36.0548 224.29 33.7191C219.812 30.6855 213.296 29.8264 209.89 32.4574C209.542 32.7795 208.389 33.6923 207.852 35.2762Z" fill="#0B245B"/>
<path d="M202.757 64.083C202.355 64.4857 201.175 65.7206 200.961 67.6536C200.666 70.3382 202.462 72.1906 202.838 72.5665C204.795 74.5799 208.067 75.3853 210.427 74.1772C210.614 74.0967 212.679 72.996 212.76 71.4121C212.787 70.7141 212.411 70.3651 211.875 68.808C211.526 67.7878 211.312 66.9556 211.151 66.3918C210.427 66.6334 209.193 66.9556 207.665 66.7408C204.93 66.3918 203.24 64.6199 202.757 64.083Z" fill="#0B245B"/>
<path opacity="0.12" d="M208.121 37.6396C208.147 38.4719 208.255 39.7068 208.818 41.0223C209.193 41.9082 209.569 42.4451 209.864 42.8747C210.99 44.5929 211.365 46.2036 211.955 48.0023C212.894 50.7944 212.733 53.13 212.545 56.0294C212.384 58.4456 211.848 62.1235 210.105 66.3921C210.829 66.6068 211.875 67.0364 213.001 67.7881C215.066 69.1841 216.004 70.8486 216.594 71.6271C217.801 73.211 220.483 74.8755 226.945 74.7681C226.302 74.1238 225.39 73.1574 224.398 71.9761C222.065 69.2378 220.027 66.8485 218.82 63.9491C218.123 62.2846 217.05 58.8751 217.882 53.9354C218.632 54.3112 219.517 54.2844 220.215 53.828C220.939 53.3448 221.394 52.3783 221.153 51.4924C220.858 50.4722 219.625 49.7742 218.364 50.0964C218.096 49.4252 217.667 48.4587 216.97 47.4117C215.87 45.7741 214.717 44.7539 214.288 44.3781C212.921 43.1968 210.936 41.1834 208.121 37.6396Z" fill="#606060"/>
<path opacity="0.14" d="M197.636 53.5856C197.663 53.1561 199.03 52.8071 200.183 52.8876C201.202 52.9681 202.409 53.4245 202.382 53.8272C202.355 54.2031 201.229 54.4984 200.398 54.5252C199.111 54.5789 197.636 54.0152 197.636 53.5856Z" fill="#606060"/>
<path d="M200.961 43.5982C199.432 46.954 198.064 50.3635 196.885 53.8536C196.804 54.0683 196.965 54.2831 197.153 54.3368C198.198 54.7395 199.244 54.9274 200.344 54.9006C200.853 54.9006 200.853 54.0952 200.344 54.0952C199.298 54.0952 198.333 53.9072 197.367 53.5582C197.448 53.7193 197.555 53.8804 197.635 54.0415C198.788 50.6051 200.102 47.2493 201.631 43.9741C201.872 43.5446 201.175 43.115 200.961 43.5982Z" fill="#222222"/>
<path d="M200.236 55.0613C200.451 58.5244 200.773 62.3635 203.347 64.9676C205.814 67.4911 209.381 67.2764 212.625 66.9005C213.135 66.8468 213.135 66.0414 212.625 66.0951C209.622 66.4441 206.216 66.7394 203.91 64.4038C201.497 61.9608 201.255 58.3097 201.041 55.0613C201.014 54.5512 200.21 54.5512 200.236 55.0613Z" fill="#222222"/>
<path d="M211.043 66.981C211.392 68.8603 212.036 70.659 212.947 72.3235C213.189 72.7798 213.886 72.3772 213.645 71.9208C212.76 70.2831 212.17 68.5918 211.821 66.7663C211.741 66.2562 210.963 66.471 211.043 66.981Z" fill="#222222"/>
<path d="M200.773 59.1693C202.087 60.3237 204.044 59.7867 204.554 58.0954C204.715 57.5853 203.937 57.3974 203.776 57.8807C203.454 58.9545 202.194 59.3572 201.363 58.5787C200.961 58.2565 200.397 58.8203 200.773 59.1693Z" fill="#222222"/>
<path d="M203.24 58.0694C203.669 58.1768 203.991 58.4184 204.259 58.7406C204.393 58.9017 204.688 58.8748 204.822 58.7406C204.983 58.5795 204.956 58.3379 204.822 58.1768C204.473 57.7473 203.991 57.4251 203.454 57.2909C202.972 57.1566 202.757 57.9352 203.24 58.0694Z" fill="#222222"/>
<path d="M204.447 48.0281C204.661 46.9006 206.055 47.1154 206.806 47.5181C207.45 47.8671 207.906 48.4308 208.174 49.102C208.362 49.5852 209.139 49.3705 208.952 48.8872C208.523 47.7328 207.638 46.8201 206.404 46.4979C205.278 46.2026 203.937 46.5516 203.696 47.8134C203.588 48.3235 204.366 48.5382 204.447 48.0281Z" fill="#222222"/>
<path d="M204.42 43.2768C205.626 41.2634 207.986 42.8205 208.469 44.5118C208.603 45.0219 209.381 44.8071 209.247 44.297C208.898 43.0621 208.04 41.9077 206.726 41.5855C205.546 41.3171 204.339 41.8271 203.722 42.8473C203.454 43.3305 204.151 43.7332 204.42 43.2768Z" fill="#222222"/>
<path d="M205.224 52.5925C205.734 52.5925 205.734 51.7871 205.224 51.7871C204.715 51.7871 204.688 52.5925 205.224 52.5925Z" fill="#222222"/>
<path d="M206.753 51.3845C206.78 51.3845 206.833 51.3845 206.86 51.3845C207.075 51.3845 207.262 51.1966 207.262 50.9818C207.262 50.767 207.075 50.5791 206.86 50.5791C206.833 50.5791 206.78 50.5791 206.753 50.5791C206.538 50.5791 206.351 50.767 206.351 50.9818C206.351 51.2234 206.538 51.3845 206.753 51.3845Z" fill="#222222"/>
<path d="M206.78 52.7537C206.78 52.7805 206.78 52.8073 206.78 52.8342C206.78 53.3443 207.584 53.3443 207.584 52.8342C207.584 52.8073 207.584 52.7805 207.584 52.7537C207.584 52.2436 206.78 52.2436 206.78 52.7537C206.78 52.7805 206.78 52.8073 206.78 52.8342C206.78 53.3443 207.584 53.3443 207.584 52.8342C207.584 52.8073 207.584 52.7805 207.584 52.7537C207.584 52.2436 206.78 52.2436 206.78 52.7537Z" fill="#222222"/>
<path d="M218.471 48.646C219.195 47.599 220.428 48.2702 220.858 49.1292C221.206 49.8004 221.206 50.6058 221.179 51.3306C221.072 53.1562 219.544 54.4448 217.774 53.3173C217.345 53.022 216.942 53.72 217.371 54.0153C218.417 54.7133 219.758 54.7938 220.804 53.9884C221.877 53.1562 222.064 51.787 221.984 50.4984C221.903 49.2635 221.421 47.8943 220.133 47.4379C219.222 47.1158 218.31 47.4648 217.774 48.2433C217.505 48.646 218.203 49.0487 218.471 48.646Z" fill="#222222"/>
<path d="M146.338 33.3164C145.775 33.3164 145.212 33.3432 144.676 33.3432C143.764 35.1151 143.255 36.7259 142.96 37.9071C142.101 41.3703 142.316 44.2428 142.477 45.6388C142.584 46.5785 142.745 47.357 142.879 47.8939C143.362 47.8939 143.844 47.8939 144.327 47.8939C144.515 48.5382 144.703 49.1826 144.89 49.8269C149.422 49.8 153.15 49.8 155.751 49.8269C171.518 49.9611 182.513 50.5786 185.06 50.7128C188.251 50.9007 190.853 51.0886 192.462 51.196C192.515 50.2027 192.783 49.8537 193.025 49.7463C193.454 49.5584 193.829 50.0148 194.392 49.9074C194.982 49.8 195.358 49.1826 195.599 48.6188C196.082 48.8604 196.967 49.1826 198.012 49.0215C198.254 48.9946 198.468 48.9141 198.656 48.8604C199.112 47.9476 199.568 47.0349 200.024 46.1221C199.38 45.9073 198.468 45.7194 197.369 45.7194C196.752 45.7194 196.216 45.7999 195.76 45.8805C195.706 45.7462 195.277 44.5381 194.151 44.2697C193.802 44.1891 193.507 44.216 193.266 44.2697C193.105 43.9744 192.944 43.6791 192.783 43.3838C192.14 43.2764 191.148 43.1153 189.968 42.9005C180.394 41.1555 173.717 39.0346 168.622 37.5044C163.742 36.0279 156.636 34.0144 147.518 31.7861C147.143 32.2962 146.741 32.8063 146.338 33.3164Z" fill="white"/>
<path opacity="0.07" d="M142.557 43.7342C142.798 43.6805 143.066 44.298 143.361 44.2175C143.844 44.1101 143.737 42.4187 143.844 41.157C143.924 39.9489 144.273 38.2039 145.453 36.083C146.231 36.4052 147.41 36.9152 148.832 37.5327C153.954 39.761 157.493 41.4791 158.566 41.9624C165.645 45.2645 173.422 46.741 175.379 47.1169C179.831 47.9759 185.998 48.7276 193.4 48.4055C193.078 49.2914 192.756 50.1773 192.434 51.0633C191.201 51.0364 189.404 51.0364 187.205 50.9827C177.766 50.7948 171.169 50.4995 167.388 50.3384C162.052 50.1236 154.409 49.9089 144.756 49.9357C144.648 49.2109 144.541 48.486 144.434 47.7612C143.817 47.8686 143.2 47.9759 142.584 48.0833C142.181 44.7275 142.289 43.7879 142.557 43.7342Z" fill="#606060"/>
<path d="M146.902 31.8131C143.55 36.9944 142.611 43.4375 144.327 49.3706C144.461 49.8807 145.239 49.6659 145.105 49.1558C143.442 43.4107 144.354 37.236 147.599 32.2158C147.894 31.7594 147.197 31.3567 146.902 31.8131Z" fill="#222222"/>
<path d="M147.599 32.5919C162.696 36.4041 177.767 40.2162 192.864 44.0016C193.373 44.1358 193.588 43.3573 193.078 43.223C177.981 39.4109 162.911 35.5987 147.813 31.8133C147.331 31.6791 147.116 32.4577 147.599 32.5919Z" fill="#222222"/>
<path d="M144.89 50.2568C160.631 50.1225 176.372 50.4984 192.086 51.3575C192.595 51.3843 192.595 50.5789 192.086 50.5521C176.372 49.693 160.631 49.3171 144.89 49.4514C144.38 49.4514 144.38 50.2568 144.89 50.2568Z" fill="#222222"/>
<path d="M192.623 43.706C193.695 46.0953 193.454 48.8068 191.979 50.9814C191.684 51.4109 192.381 51.8136 192.676 51.384C194.312 48.9679 194.526 45.9611 193.32 43.3033C193.105 42.8469 192.408 43.2496 192.623 43.706Z" fill="#222222"/>
<path d="M193.427 44.7529C193.722 44.9677 193.936 44.8871 194.285 44.9677C194.955 45.1556 195.223 45.7731 195.357 46.4174C195.572 47.5986 195.277 50.0953 193.534 49.3973C193.051 49.2094 192.837 49.9879 193.319 50.1759C195.089 50.8739 196.242 49.0215 196.242 47.4644C196.242 46.6053 196.135 45.6388 195.652 44.914C195.492 44.6724 195.277 44.4307 195.009 44.2965C194.66 44.1354 194.178 44.2428 193.883 44.0281C193.4 43.7596 192.998 44.4576 193.427 44.7529Z" fill="#222222"/>
<path d="M195.786 46.2301C197.154 46.1495 198.521 46.1764 199.862 46.3643C200.371 46.418 200.371 45.6126 199.862 45.5589C198.494 45.3979 197.154 45.3442 195.786 45.4247C195.276 45.4784 195.276 46.2838 195.786 46.2301Z" fill="#222222"/>
<path d="M195.68 49.182C196.779 49.37 197.878 49.4505 198.978 49.3431C199.487 49.2894 199.487 48.484 198.978 48.5377C197.932 48.6183 196.913 48.5914 195.894 48.4035C195.385 48.3229 195.17 49.0746 195.68 49.182Z" fill="#222222"/>
<path d="M146.445 33.1026C143.844 31.5992 143.12 36.2973 142.772 37.7738C141.967 41.1833 141.592 44.7002 142.584 48.1097C142.637 48.2707 142.798 48.405 142.959 48.405C143.308 48.405 143.683 48.405 144.032 48.405C144.541 48.405 144.541 47.5996 144.032 47.5996C143.683 47.5996 143.308 47.5996 142.959 47.5996C143.093 47.707 143.227 47.7875 143.335 47.8949C142.637 45.425 142.637 42.9283 143.04 40.4048C143.227 39.2772 143.469 38.1497 143.764 37.049C143.951 36.3241 144.541 32.9146 146.016 33.8006C146.499 34.069 146.901 33.371 146.445 33.1026Z" fill="#222222"/>
<path d="M175.431 38.8722C174.948 38.2816 174.144 38.3621 174.037 38.3621C173.152 38.4158 172.294 39.2212 171.355 41.181C169.532 44.9126 169.451 48.6442 169.451 49.2349C169.424 51.8121 169.666 56.0002 171.489 60.9936C171.65 63.0876 171.999 66.0138 172.776 69.4233C174.144 75.5443 175.592 81.9874 180.58 87.7057C182.457 89.8802 186.157 94.0951 192.593 95.6254C199.324 97.2361 204.794 94.8468 206.135 94.2294C207.315 93.6656 210.613 92.0011 213.402 88.4842C215.092 86.3634 217.049 84.0546 216.727 81.2089C216.593 79.9739 216.057 78.9269 215.253 77.2625C214.448 75.598 214.019 74.7657 213.161 74.4436C211.981 73.9872 210.721 74.7926 209.326 75.598C206.966 76.9403 206.752 78.2289 204.204 79.5712C203.534 79.9202 202.864 80.1619 201.523 80.5914C199.404 81.2894 197.313 81.9874 195.382 82.1216C191.172 82.417 187.793 80.0008 186.828 79.3028C183.261 76.7524 181.867 73.3429 180.955 71.1146C178.917 66.1212 179.078 61.5305 179.427 58.8459C180.687 58.6311 181.465 58.121 181.84 57.8257C183.261 56.725 183.61 55.1948 184.146 52.8323C184.495 51.3557 184.656 50.5772 184.28 50.2819C183.503 49.6913 181.116 51.6242 180.58 52.0806C180.687 50.255 180.955 48.7785 181.223 47.7315C181.572 46.3355 181.76 45.6106 182.242 45.0468C183.181 43.9461 184.28 44.0535 184.656 43.0065C184.87 42.4427 184.843 41.6642 184.388 41.2078C183.851 40.6709 182.698 40.6977 181.706 41.4763C181.384 40.7783 180.741 40.3487 180.043 40.3219C179.346 40.295 178.89 40.7246 178.756 40.832C178.837 40.1071 178.515 39.436 177.979 39.1675C177.254 38.7916 176.101 39.2212 175.672 40.3219C175.699 40.1876 175.887 39.436 175.431 38.8722Z" fill="white"/>
<path opacity="0.12" d="M174.037 38.3613C173.393 39.4889 172.589 41.1533 172.053 43.3279C170.873 48.0529 171.838 51.9993 172.267 53.9054C176.88 73.5837 174.868 74.067 178.086 78.6845C179.266 80.349 187.364 91.5171 199.432 90.0405C209.541 88.8056 214.904 79.5973 215.602 78.3624C216.004 79.4362 216.487 81.2618 216.165 83.4363C215.682 86.6311 213.698 88.6445 212.974 89.3962C212.276 90.0942 211.418 90.7117 209.675 91.9198C208.12 93.0205 206.591 93.9869 205.921 94.336C202.73 96.1347 197.796 96.5642 194.363 96.1078C185.032 94.8729 179.427 86.0136 177.094 82.3356C171.758 73.9327 171.221 65.4224 171.275 61.1807C170.765 59.4626 170.256 57.7175 169.746 55.9994C169.398 53.3416 169.371 51.1402 169.425 49.6099C169.559 45.7709 169.666 42.8984 171.624 40.4553C172.482 39.3815 173.42 38.7372 174.037 38.3613Z" fill="#606060"/>
<path d="M210.346 91.5181C214.583 89.5046 217.426 85.2897 216.728 80.5111C216.326 77.6117 213.993 72.6183 210.266 74.3901C208.603 75.1955 207.236 76.6721 205.707 77.7191C203.589 79.1688 201.148 80.2963 198.708 81.0749C195.598 82.0682 192.138 82.2829 189.135 80.7795C186.936 79.6788 185.22 77.8801 183.906 75.8398C181.01 71.3565 179.508 66.0678 179.857 60.7253C179.883 60.2153 179.079 60.2153 179.052 60.7253C178.757 65.2355 179.749 69.5309 181.734 73.5579C183.477 77.1553 186.024 80.5379 189.886 81.9876C194.579 83.7326 199.7 81.9608 203.937 79.7325C205.841 78.7124 207.477 77.3969 209.193 76.0814C210.748 74.8734 212.304 74.2827 213.886 75.8935C215.843 77.8801 216.433 81.3433 215.843 83.9743C215.119 87.1153 212.786 89.4778 209.944 90.8201C209.488 91.0348 209.89 91.7329 210.346 91.5181Z" fill="#222222"/>
<path d="M179.803 61.0749C179.455 59.5984 180.5 59.2225 181.466 58.5245C182.029 58.1218 182.458 57.5581 182.86 56.9943C183.879 55.5177 184.684 53.7996 184.898 52.0009C185.006 51.1149 185.193 49.7189 183.987 49.6652C182.565 49.6115 181.975 51.4103 180.635 51.5445C180.125 51.5982 180.125 52.4036 180.635 52.3499C181.654 52.2425 182.163 51.5982 182.941 51.0076C183.397 50.6586 183.906 50.2559 184.147 51.0344C184.282 51.4639 184.067 52.2693 183.96 52.6989C183.772 53.6117 183.37 54.4976 182.941 55.3298C182.538 56.0815 182.083 56.8601 181.466 57.4775C180.903 58.0682 180.125 58.2024 179.508 58.6856C178.677 59.3299 178.811 60.4306 179.026 61.3166C179.16 61.7998 179.937 61.585 179.803 61.0749Z" fill="#222222"/>
<path d="M170.445 56.8334C169.908 53.3702 169.855 49.8265 170.391 46.3633C170.606 44.9673 170.874 43.5445 171.356 42.2021C171.651 41.3699 172.054 40.4034 172.644 39.7323C173.448 38.8464 175.03 38.39 175.459 39.8934C175.593 40.4034 176.371 40.1887 176.237 39.6786C175.862 38.39 174.628 37.692 173.341 38.202C171.705 38.8732 170.927 40.8867 170.418 42.4169C168.916 47.0613 168.916 52.2695 169.64 57.0482C169.748 57.5582 170.525 57.3435 170.445 56.8334Z" fill="#222222"/>
<path d="M174.333 42.9809C174.977 41.3969 176.8 38.2022 178.784 40.3768C179.133 40.7526 179.696 40.1889 179.348 39.813C178.436 38.8197 177.122 38.6586 175.969 39.3298C174.682 40.0546 174.092 41.4775 173.555 42.7929C173.368 43.2493 174.145 43.4641 174.333 42.9809Z" fill="#222222"/>
<path d="M177.711 43.6511C177.738 42.6309 178.14 41.5034 179.133 41.0202C179.964 40.6175 180.956 40.8054 181.519 41.5302C181.841 41.9329 182.404 41.3692 182.082 40.9665C181.305 40 179.91 39.7584 178.811 40.2685C177.524 40.8859 176.934 42.2819 176.907 43.6511C176.88 44.1612 177.685 44.1612 177.711 43.6511Z" fill="#222222"/>
<path d="M180.045 43.9217C180.527 42.123 182.538 40.4854 184.281 41.9351C184.684 42.2572 185.247 41.6935 184.845 41.3713C182.619 39.5458 179.937 41.2639 179.267 43.7069C179.133 44.217 179.911 44.4318 180.045 43.9217Z" fill="#222222"/>
<path d="M184.12 41.7998C184.978 43.0079 183.074 43.7596 182.404 44.3234C181.841 44.7798 181.519 45.3704 181.278 46.0416C180.634 47.8939 180.339 49.9074 180.178 51.8404C180.125 52.3504 180.929 52.3504 180.983 51.8404C181.117 50.4175 181.331 48.9947 181.68 47.5986C181.787 47.1423 181.895 46.6859 182.055 46.2295C182.404 45.2899 182.914 44.9409 183.691 44.3771C184.657 43.6791 185.676 42.5515 184.817 41.3434C184.523 40.9676 183.825 41.3703 184.12 41.7998Z" fill="#222222"/>
<path d="M169.452 56.0289C169.881 57.8544 170.417 59.6532 171.087 61.425C171.275 61.9083 172.053 61.6935 171.865 61.2102C171.195 59.4384 170.658 57.6397 170.229 55.8141C170.122 55.304 169.344 55.5188 169.452 56.0289Z" fill="#222222"/>
<path d="M170.954 61.934C171.973 71.1691 174.252 80.6459 180.447 87.8407C185.381 93.559 193.211 97.9081 200.934 96.4852C204.581 95.8141 207.906 93.9885 210.561 91.4381C210.936 91.0891 210.373 90.4985 209.998 90.8743C204.688 95.9751 197.126 97.3175 190.395 94.2838C183.155 90.9817 178.087 84.7802 175.217 77.4511C173.287 72.4846 172.321 67.2227 171.731 61.9608C171.705 61.4239 170.9 61.4239 170.954 61.934Z" fill="#222222"/>
</svg>
