<svg width="104" height="34" viewBox="0 0 104 34" fill="none" xmlns="http://www.w3.org/2000/svg">
<path d="M0 32.9285H6.14289C9.45959 32.9285 12.496 31.5972 12.496 27.9535C12.496 26.482 11.7953 24.7769 9.88002 24.193V24.1463C11.1413 23.4222 11.8186 21.9975 11.8186 20.596C11.8186 17.7231 9.48295 16.2283 6.14289 16.2283H0V32.9285ZM4.08748 22.6982V19.7318H6.11954C7.21732 19.7318 7.6611 20.3858 7.6611 21.1566C7.6611 21.9508 7.21732 22.6982 6.18961 22.6982H4.08748ZM4.08748 29.425V25.9682H6.56332C7.75453 25.9682 8.3151 26.7389 8.3151 27.6732C8.3151 28.6075 7.73117 29.425 6.53996 29.425H4.08748Z" fill="white"/>
<path d="M14.2118 24.4733C14.2118 29.3783 17.7621 33.2088 22.9473 33.2088C28.1326 33.2088 31.6829 29.3783 31.6829 24.4733C31.6829 19.6851 28.1326 15.948 22.9473 15.948C17.7621 15.948 14.2118 19.6851 14.2118 24.4733ZM18.4394 24.4733C18.4394 21.7405 20.308 19.6851 22.9473 19.6851C25.5867 19.6851 27.4553 21.7405 27.4553 24.4733C27.4553 27.3229 25.5867 29.4717 22.9473 29.4717C20.308 29.4717 18.4394 27.3229 18.4394 24.4733Z" fill="white"/>
<path d="M33.6288 32.9285H37.7396L38.2535 25.4076C38.3469 24.1463 38.2535 22.6047 38.2535 22.6047H38.3002C38.3002 22.6047 38.8608 24.3565 39.2345 25.4076L40.9863 30.2425H44.4898L46.2416 25.4076C46.6153 24.3565 47.1759 22.6047 47.1759 22.6047H47.2226C47.2226 22.6047 47.1292 24.1463 47.2226 25.4076L47.7364 32.9285H51.8239L50.4692 16.2283H46.0314L43.6022 23.2821C43.2285 24.3565 42.7614 26.0382 42.7614 26.0382H42.7147C42.7147 26.0382 42.2475 24.3565 41.8738 23.2821L39.4447 16.2283H35.0069L33.6288 32.9285Z" fill="white"/>
<path d="M54.6974 32.9285H60.8403C64.157 32.9285 67.1934 31.5972 67.1934 27.9535C67.1934 26.482 66.4927 24.7769 64.5774 24.193V24.1463C65.8387 23.4222 66.516 21.9975 66.516 20.596C66.516 17.7231 64.1803 16.2283 60.8403 16.2283H54.6974V32.9285ZM58.7848 22.6982V19.7318H60.8169C61.9147 19.7318 62.3585 20.3858 62.3585 21.1566C62.3585 21.9508 61.9147 22.6982 60.887 22.6982H58.7848ZM58.7848 29.425V25.9682H61.2607C62.4519 25.9682 63.0125 26.7389 63.0125 27.6732C63.0125 28.6075 62.4285 29.425 61.2373 29.425H58.7848Z" fill="white"/>
<path d="M69.4464 32.9285H73.277V29.098H69.4464V32.9285Z" fill="white"/>
<path d="M76.4121 32.9285H82.555C85.8717 32.9285 88.9081 31.5972 88.9081 27.9535C88.9081 26.482 88.2074 24.7769 86.2921 24.193V24.1463C87.5534 23.4222 88.2307 21.9975 88.2307 20.596C88.2307 17.7231 85.895 16.2283 82.555 16.2283H76.4121V32.9285ZM80.4996 22.6982V19.7318H82.5316C83.6294 19.7318 84.0732 20.3858 84.0732 21.1566C84.0732 21.9508 83.6294 22.6982 82.6017 22.6982H80.4996ZM80.4996 29.425V25.9682H82.9754C84.1666 25.9682 84.7272 26.7389 84.7272 27.6732C84.7272 28.6075 84.1433 29.425 82.9521 29.425H80.4996Z" fill="white"/>
<path d="M94.4003 32.9285H98.4877V26.0849L104 16.2283H99.352L97.4834 20.2457C96.9462 21.3902 96.479 22.6515 96.479 22.6515H96.4323C96.4323 22.6515 95.9652 21.3902 95.428 20.2457L93.5361 16.2283H88.888L94.4003 26.0849V32.9285Z" fill="white"/>
<path d="M23.0651 14.4375C23.5517 12.0045 22.5786 9.57138 19.6589 9.57141" stroke="white" stroke-width="2" stroke-linecap="round"/>
<path d="M19.4641 14.9508C19.4641 14.3985 19.9118 13.9508 20.4641 13.9508H25.2766C25.8289 13.9508 26.2766 14.3985 26.2766 14.9508V16.8704H19.4641V14.9508Z" fill="white"/>
<path d="M27.5284 24.8169C27.5284 27.5784 25.5157 29.4115 23.0164 29.4115C20.5172 29.4115 18.5044 27.5784 18.5044 24.8169C18.5044 22.0266 20.5456 19.9982 23.0164 19.9982C25.4872 19.9982 27.5284 22.0266 27.5284 24.8169Z" stroke="white"/>
<path d="M27.5284 24.8169C27.5284 27.5784 25.5157 29.4115 23.0164 29.4115C20.5172 29.4115 18.5044 27.5784 18.5044 24.8169C18.5044 22.0266 20.5456 19.9982 23.0164 19.9982C25.4872 19.9982 27.5284 22.0266 27.5284 24.8169Z" stroke="white"/>
<path d="M11.9803 11.6729L17.1186 11.0574L16.6988 9.58914L11.9803 11.6729Z" fill="#9A073C"/>
<path d="M12.8083 4.21338L16.992 6.28336L16.1921 7.26534L12.8083 4.21338Z" fill="#9A073C"/>
<path d="M19.0868 6.33135L21.7471 -3.57608e-05L20.1455 6.55335L19.0868 6.33135Z" fill="#9A073C"/>
</svg>
