<svg viewBox="0 0 17 16" xmlns="http://www.w3.org/2000/svg">
<path fill-rule="evenodd" clip-rule="evenodd" d="M3.257 1.60203C3.11492 1.60173 2.97795 1.61781 2.84781 1.64838C2.66939 1.25515 2.43373 0.902354 2.16569 0.634315C1.71075 0.179376 0.993242 0 0 0V1.6C0.606759 1.6 0.955919 1.68729 1.03431 1.76569C1.33669 2.06806 1.6 2.68245 1.6 3.2L1.60804 3.31314L2.39194 8.80041C1.08028 8.86846 0.0641581 9.88706 0.000982864 11.1604L0 12C0.077457 13.3151 1.0902 14.3268 2.35459 14.3987L2.53621 14.399C2.86539 15.3317 3.75465 16 4.8 16C5.84497 16 6.73397 15.3322 7.06344 14.4H8.93656C9.26603 15.3322 10.155 16 11.2 16C12.5255 16 13.6 14.9255 13.6 13.6C13.6 12.2745 12.5255 11.2 11.2 11.2C10.155 11.2 9.26603 11.8678 8.93656 12.8H7.06344C6.73397 11.8678 5.84497 11.2 4.8 11.2C3.75502 11.2 2.86603 11.8678 2.53656 12.8H2.4C1.99201 12.7755 1.62603 12.4099 1.59856 11.9521L1.6 11.2C1.62157 10.785 1.98505 10.4216 2.43964 10.399L4.01895 10.3994L4.0304 10.4H12.0935L12.2116 10.3625C12.8181 10.1701 13.3037 9.7133 13.5336 9.12202L13.6179 8.95521L13.8917 8.4127C14.175 7.85113 14.4583 7.28861 14.7344 6.73904C15.4106 5.39286 15.8358 4.53733 15.93 4.32724C16.4136 3.24836 15.4339 2.41797 14.4326 2.40029L3.257 1.60203ZM11.8155 8.8H4.09029C4.03893 8.78572 3.99978 8.74221 3.99212 8.68801L3.2082 3.20059L14.3147 3.99594C14.1204 4.39226 13.7671 5.10013 13.3046 6.02087L13.293 6.04394C13.029 6.56949 12.7461 7.13124 12.4632 7.69206L12.1897 8.23388L12.086 8.43907L12.047 8.52978C12.0052 8.6462 11.9223 8.74188 11.8155 8.8ZM11.2 14.4C11.6418 14.4 12 14.0418 12 13.6C12 13.1582 11.6418 12.8 11.2 12.8C10.7582 12.8 10.4 13.1582 10.4 13.6C10.4 14.0418 10.7582 14.4 11.2 14.4ZM5.6 13.6C5.6 14.0418 5.24183 14.4 4.8 14.4C4.35817 14.4 4 14.0418 4 13.6C4 13.1582 4.35817 12.8 4.8 12.8C5.24183 12.8 5.6 13.1582 5.6 13.6Z" fill="currentColor"/>
</svg>
