<svg viewBox="0 0 14 16" fill="none" xmlns="http://www.w3.org/2000/svg">
<path d="M8.55557 0.446289H5.44446C2.44234 0.446289 0 2.88863 0 5.89075V8.22409C0 10.3318 1.21555 12.2445 3.11111 13.1442V15.7426C3.11111 15.9682 3.39336 16.0862 3.55369 15.9259L5.81106 13.6686H8.55554C11.5576 13.6686 14 11.2262 14 8.22409V5.89075C14 2.88863 11.5576 0.446289 8.55557 0.446289Z" fill="#665CAC"/>
<path d="M3.88889 13.1441C1.99332 12.2444 0.777771 10.3317 0.777771 8.22406V5.89072C0.777771 2.88863 3.22014 0.446289 6.22223 0.446289H5.44446C2.44234 0.446289 0 2.88863 0 5.89075V8.22409C0 10.3318 1.21555 12.2445 3.11111 13.1442V15.7426C3.11111 15.9682 3.39336 16.0862 3.55369 15.9259L3.88889 15.5908V13.1441Z" fill="#523494"/>
<path d="M10.9144 10.1096L10.6813 8.8469C10.662 8.74259 10.5812 8.66053 10.4772 8.63972L8.64397 8.27309C8.55882 8.25614 8.47108 8.28272 8.40975 8.34399L7.66497 9.0888C6.41011 8.52654 5.71366 7.82857 5.10088 6.51985L5.84326 5.7775C5.90453 5.71619 5.93114 5.62828 5.91416 5.54328L5.54752 3.71002C5.52672 3.60604 5.44466 3.52517 5.34035 3.50591L4.07765 3.27285C4.04308 3.2665 4.00748 3.26717 3.97315 3.27498C3.63975 3.35071 3.33554 3.5187 3.0934 3.76091C2.67412 4.18019 2.51387 4.792 2.63004 5.53022C2.82504 6.76983 3.43236 8.49494 4.55285 9.61994L4.56816 9.63512C5.69228 10.7548 7.41742 11.3622 8.65709 11.5572C8.81326 11.5818 8.96367 11.594 9.1079 11.594C9.64544 11.594 10.0958 11.4245 10.4265 11.0939C10.6686 10.8517 10.8367 10.5475 10.9124 10.2141C10.92 10.1798 10.9208 10.1442 10.9144 10.1096Z" fill="white"/>
<path d="M5.58987 6.03088L5.84335 5.77737L5.84362 5.7771L5.58984 6.03085L5.58987 6.03088Z" fill="#E5E5E5"/>
<path d="M8.40977 8.34365L8.15381 8.59961L8.15385 8.59965L8.40981 8.34369L8.40977 8.34365Z" fill="#E5E5E5"/>
<path d="M9.59656 11.105C9.45233 11.105 9.30193 11.0928 9.14575 11.0682C7.90611 10.8732 6.18097 10.2658 5.05683 9.14611L5.04152 9.13093C3.92102 8.00593 3.3137 6.28082 3.1187 5.04121C3.02486 4.4448 3.11162 3.93095 3.3695 3.53442C3.27074 3.60031 3.17806 3.67589 3.09315 3.7608C2.67387 4.18008 2.51363 4.7919 2.6298 5.53012C2.82479 6.76972 3.43211 8.49484 4.55261 9.61983L4.56792 9.63502C5.69203 10.7547 7.41718 11.3621 8.65685 11.5571C8.81302 11.5817 8.96342 11.5939 9.10766 11.5939C9.6452 11.5939 10.0956 11.4244 10.4262 11.0937C10.5111 11.0088 10.5867 10.9162 10.6526 10.8174C10.3598 11.0078 10.0032 11.105 9.59656 11.105Z" fill="#E5E5E5"/>
<path d="M7.51877 4.85376C7.3756 4.85376 7.25952 4.96983 7.25952 5.11301C7.25952 5.25618 7.3756 5.37225 7.51877 5.37225C8.09061 5.37225 8.55582 5.83746 8.55582 6.4093C8.55582 6.55056 8.67381 6.66855 8.81506 6.66855C8.95632 6.66855 9.07431 6.55056 9.07431 6.4093C9.07434 5.55155 8.37653 4.85376 7.51877 4.85376Z" fill="white"/>
<path d="M7.51856 3.81665C7.42266 3.81665 7.32587 3.82197 7.23085 3.83245C7.08853 3.84815 6.98588 3.97626 7.00159 4.11861C7.01729 4.26096 7.14567 4.36334 7.28775 4.34787C7.36394 4.33946 7.44158 4.33517 7.51856 4.33517C8.6622 4.33517 9.59262 5.2656 9.59262 6.40924C9.59262 6.48625 9.58834 6.5639 9.57993 6.64008C9.56443 6.78046 9.66875 6.91078 9.80919 6.92625C9.9496 6.94171 10.0798 6.83742 10.0954 6.69698C10.1058 6.60196 10.1111 6.50518 10.1111 6.40924C10.1111 4.97971 8.94812 3.81665 7.51856 3.81665Z" fill="white"/>
<path d="M7.51879 2.77954C7.42614 2.77954 7.3323 2.78306 7.23995 2.79008C7.09717 2.8009 6.99018 2.92545 7.001 3.06819C7.01178 3.21097 7.13676 3.31796 7.27911 3.30715C7.35849 3.3011 7.43914 3.29807 7.51879 3.29807C9.23428 3.29807 10.6299 4.6937 10.6299 6.40918C10.6299 6.6519 10.6019 6.89353 10.5467 7.12732C10.515 7.26129 10.5975 7.40054 10.7303 7.43693C10.8701 7.47521 11.018 7.38757 11.0513 7.24658C11.1157 6.97376 11.1484 6.69203 11.1484 6.40918C11.1484 4.40778 9.52019 2.77954 7.51879 2.77954Z" fill="white"/>
</svg>
